<svg xmlns="http://www.w3.org/2000/svg" viewBox="0 0 24 24"><title>60.Pin</title><g id="_60.Pin" data-name="60.Pin"><path d="M13.376,24H10.624l-.282-.247C10,23.454,2,16.381,2,10a10,10,0,0,1,20,0c0,6.381-8,13.454-8.342,13.753Zm-1.99-2h1.227C13.979,20.735,20,14.878,20,10A8,8,0,0,0,4,10C4,14.886,10.021,20.737,11.386,22Z"/><path d="M12,16a6,6,0,1,1,6-6A6.006,6.006,0,0,1,12,16ZM12,6a4,4,0,1,0,4,4A4,4,0,0,0,12,6Z"/><polygon points="9.707 14.707 8.293 13.293 10 11.586 10 11.414 9 10.414 9 9.414 7.293 7.707 8.707 6.293 11 8.586 11 9.586 12 10.586 12 12.414 9.707 14.707"/><polygon points="15.293 13.707 13 11.414 13 10.414 12 9.414 12 7.586 14.293 5.293 15.707 6.707 14 8.414 14 8.586 15 9.586 15 10.586 16.707 12.293 15.293 13.707"/></g></svg>